<?xml version="1.0" encoding="UTF-8" standalone="no"?>
<!DOCTYPE svg PUBLIC "-//W3C//DTD SVG 1.1//EN" "http://www.w3.org/Graphics/SVG/1.1/DTD/svg11.dtd">
<svg width="100%" height="100%" viewBox="0 0 3234 541" version="1.1" xmlns="http://www.w3.org/2000/svg" xmlns:xlink="http://www.w3.org/1999/xlink" xml:space="preserve" xmlns:serif="http://www.serif.com/" style="fill-rule:evenodd;clip-rule:evenodd;stroke-linejoin:round;stroke-miterlimit:2;">
    <g transform="matrix(1,0,0,1,-138.715449,-3415.935988)">
        <g>
            <g transform="matrix(1.380106,0,0,1.380106,-1801.461072,2680.237992)">
                <g transform="matrix(-1.579482,0,0,-1.579482,3781.303962,3782.02785)">
                    <path d="M1278.105,2056.549C1278.105,2056.549 1274.888,2056.111 1272.967,2054.182C1272.967,2054.182 1233.429,2013.418 1224.18,2003.882C1223.674,2003.36 1222.98,2003.064 1222.254,2003.059C1221.527,2003.054 1220.829,2003.341 1220.316,2003.856C1210.888,2013.319 1170.392,2053.962 1170.392,2053.962C1168.47,2055.89 1165.86,2056.975 1163.137,2056.975L1066.132,2056.975C1064.987,2056.974 1063.943,2056.315 1063.451,2055.281C1062.959,2054.247 1063.107,2053.022 1063.829,2052.134L1154.639,1940.485C1158.17,1936.144 1158.17,1929.921 1154.639,1925.58L1063.829,1813.932C1063.106,1813.043 1062.959,1811.818 1063.451,1810.784C1063.943,1809.749 1064.986,1809.09 1066.131,1809.09L1066.133,1809.091L1163.137,1809.091C1165.86,1809.091 1168.47,1810.175 1170.392,1812.103C1170.392,1812.103 1209.999,1851.855 1219.203,1861.092C1220.252,1862.145 1221.954,1862.156 1223.016,1861.116C1232.396,1851.943 1272.967,1812.262 1272.967,1812.262C1274.385,1810.839 1276.168,1809.862 1278.105,1809.455L1330.703,1874.122L1288.72,1924.412C1285.189,1928.753 1285.189,1934.976 1288.72,1939.317L1330.524,1992.102L1278.105,2056.549Z" style="fill:url(#_Linear1);"/>
                </g>
                <g transform="matrix(-1.579482,0,0,-1.579482,3437.18642,3782.02785)">
                    <path d="M1060.238,2056.549C1060.238,2056.549 1141.72,1956.368 1157.92,1936.452C1159.539,1934.46 1159.539,1931.605 1157.92,1929.614C1141.72,1909.697 1060.238,1809.517 1060.238,1809.517C1062.175,1809.235 1064.145,1809.091 1066.133,1809.091L1163.137,1809.091C1165.86,1809.091 1168.47,1810.175 1170.392,1812.103L1283.112,1925.234C1285.082,1927.21 1286.078,1930.445 1286.098,1933.033C1286.078,1935.621 1285.082,1938.855 1283.112,1940.832L1170.392,2053.962C1168.47,2055.89 1165.86,2056.975 1163.137,2056.975L1066.133,2056.975C1064.145,2056.975 1062.175,2056.83 1060.238,2056.549Z" style="fill:rgb(105,226,40);"/>
                </g>
            </g>
            <g transform="matrix(2.275561,0,0,2.275561,-58.97604,-3779.337662)">
                <g transform="matrix(5.190532,0,0,5.190532,-6673.586507,613.885324)">
                    <path d="M1402.773,527.332C1400.164,527.332 1397.888,526.838 1395.946,525.851C1394.004,524.863 1392.504,523.476 1391.445,521.688C1390.386,519.901 1389.857,517.861 1389.857,515.569C1389.857,513.827 1390.095,512.185 1390.57,510.644C1391.045,509.102 1391.743,507.702 1392.664,506.444C1393.585,505.185 1394.694,504.094 1395.989,503.169C1397.286,502.244 1398.728,501.536 1400.315,501.044C1401.903,500.553 1403.631,500.307 1405.498,500.307C1407.891,500.307 1409.987,500.693 1411.787,501.464C1413.588,502.235 1415.013,503.289 1416.063,504.627C1417.07,505.91 1417.637,507.378 1417.762,509.032C1417.766,509.088 1417.747,509.142 1417.709,509.183C1417.672,509.223 1417.619,509.246 1417.563,509.246C1416.619,509.247 1412.819,509.247 1411.979,509.247C1411.883,509.247 1411.801,509.18 1411.783,509.086C1411.619,508.295 1411.284,507.596 1410.777,506.987C1410.236,506.338 1409.509,505.818 1408.598,505.426C1407.686,505.035 1406.54,504.84 1405.159,504.84C1404.035,504.84 1402.997,505.004 1402.044,505.333C1401.091,505.661 1400.233,506.134 1399.471,506.75C1398.71,507.366 1398.063,508.109 1397.53,508.98C1396.997,509.849 1396.587,510.822 1396.299,511.896C1396.013,512.97 1395.869,514.131 1395.869,515.38C1395.869,516.788 1396.15,518.058 1396.712,519.191C1397.274,520.323 1398.085,521.207 1399.146,521.844C1400.208,522.481 1401.509,522.799 1403.049,522.799C1404.913,522.799 1406.432,522.387 1407.605,521.564C1408.745,520.764 1409.629,519.788 1410.259,518.634C1410.294,518.57 1410.361,518.53 1410.435,518.53C1411.167,518.53 1415.055,518.53 1416.144,518.53C1416.209,518.53 1416.27,518.561 1416.307,518.615C1416.345,518.668 1416.354,518.737 1416.332,518.798C1415.723,520.453 1414.828,521.908 1413.645,523.162C1412.399,524.484 1410.863,525.509 1409.038,526.238C1407.212,526.967 1405.124,527.332 1402.773,527.332Z" style="fill:rgb(226,227,216);fill-rule:nonzero;"/>
                </g>
                <g transform="matrix(5.190532,0,0,5.190532,-6673.586507,613.885324)">
                    <path d="M1429.485,506.154C1429.477,506.202 1429.506,506.25 1429.553,506.265C1429.6,506.28 1429.651,506.259 1429.673,506.215C1430.117,505.331 1430.599,504.581 1431.117,503.965C1432.034,502.877 1433.078,502.106 1434.249,501.651C1435.42,501.197 1436.693,500.969 1438.069,500.969L1440.491,500.969C1440.551,500.969 1440.607,500.996 1440.645,501.041C1440.683,501.087 1440.699,501.147 1440.688,501.206C1440.517,502.137 1439.892,505.54 1439.748,506.329C1439.73,506.424 1439.647,506.493 1439.551,506.493C1438.986,506.493 1437.179,506.493 1437.179,506.493C1435.72,506.493 1434.339,506.874 1433.035,507.637C1431.731,508.399 1430.623,509.446 1429.71,510.78C1428.798,512.112 1428.171,513.658 1427.829,515.416C1427.829,515.416 1426.108,525.115 1425.861,526.504C1425.844,526.6 1425.761,526.669 1425.664,526.669C1424.827,526.669 1421.103,526.669 1420.12,526.669C1420.061,526.669 1420.005,526.643 1419.967,526.598C1419.929,526.553 1419.913,526.493 1419.923,526.435C1420.356,523.987 1424.037,503.2 1424.402,501.135C1424.419,501.039 1424.502,500.969 1424.599,500.969L1430.132,500.969C1430.191,500.969 1430.247,500.995 1430.285,501.04C1430.323,501.085 1430.339,501.145 1430.329,501.203C1430.189,502.028 1429.712,504.824 1429.485,506.154Z" style="fill:rgb(226,227,216);"/>
                </g>
                <g transform="matrix(5.190532,0,0,5.190532,-6673.586507,613.885324)">
                    <path d="M1480.893,505.637C1480.903,505.579 1480.887,505.519 1480.849,505.474C1480.811,505.428 1480.755,505.402 1480.696,505.402C1479.815,505.402 1476.747,505.402 1475.869,505.402C1475.81,505.402 1475.754,505.376 1475.716,505.331C1475.678,505.286 1475.662,505.227 1475.672,505.169C1475.806,504.379 1476.24,501.815 1476.356,501.136C1476.372,501.04 1476.455,500.969 1476.553,500.969L1481.551,500.969C1481.648,500.969 1481.731,500.9 1481.748,500.804C1481.842,500.272 1482.132,498.634 1482.132,498.634C1482.399,497.009 1482.92,495.626 1483.696,494.484C1484.471,493.341 1485.47,492.47 1486.691,491.87C1487.912,491.27 1489.34,490.969 1490.974,490.969L1496.542,490.969C1496.601,490.969 1496.657,490.996 1496.695,491.041C1496.733,491.086 1496.749,491.146 1496.739,491.205C1496.598,491.996 1496.142,494.55 1496.021,495.225C1496.004,495.32 1495.921,495.39 1495.824,495.39L1492.205,495.39C1491.08,495.39 1490.141,495.719 1489.387,496.376C1488.633,497.034 1488.144,497.995 1487.919,499.262C1487.919,499.262 1487.743,500.267 1487.66,500.735C1487.65,500.793 1487.666,500.853 1487.704,500.898C1487.742,500.943 1487.798,500.969 1487.857,500.969C1488.972,500.969 1493.664,500.969 1494.78,500.969C1494.839,500.969 1494.895,500.996 1494.933,501.041C1494.971,501.086 1494.987,501.146 1494.976,501.204C1494.835,501.997 1494.379,504.561 1494.259,505.237C1494.242,505.333 1494.159,505.402 1494.062,505.402C1493.072,505.402 1488,505.402 1487.009,505.402C1486.912,505.402 1486.829,505.472 1486.812,505.568C1486.483,507.441 1483.465,524.631 1483.136,526.504C1483.12,526.6 1483.036,526.669 1482.939,526.669L1477.409,526.669C1477.35,526.669 1477.294,526.643 1477.256,526.598C1477.218,526.553 1477.202,526.493 1477.212,526.435C1477.595,524.269 1480.51,507.803 1480.893,505.637Z" style="fill:rgb(226,227,216);"/>
                </g>
                <g transform="matrix(5.190532,0,0,5.190532,-6673.586507,613.885324)">
                    <path d="M1502.953,505.637C1502.963,505.578 1502.947,505.519 1502.909,505.474C1502.871,505.428 1502.815,505.402 1502.756,505.402C1501.864,505.402 1498.727,505.402 1497.834,505.402C1497.774,505.402 1497.718,505.376 1497.68,505.331C1497.642,505.285 1497.626,505.225 1497.637,505.167C1497.778,504.374 1498.234,501.811 1498.355,501.134C1498.371,501.039 1498.454,500.969 1498.551,500.969C1499.354,500.969 1502.797,500.969 1503.601,500.969C1503.698,500.969 1503.781,500.9 1503.798,500.804C1503.963,499.857 1504.789,495.132 1504.954,494.185C1504.971,494.089 1505.054,494.019 1505.151,494.019L1510.732,494.019C1510.791,494.019 1510.847,494.046 1510.885,494.091C1510.923,494.136 1510.939,494.196 1510.929,494.254C1510.742,495.317 1509.977,499.672 1509.79,500.735C1509.78,500.793 1509.796,500.853 1509.834,500.898C1509.872,500.943 1509.928,500.969 1509.987,500.969C1511.091,500.969 1515.701,500.969 1516.806,500.969C1516.865,500.969 1516.921,500.996 1516.959,501.041C1516.997,501.086 1517.013,501.146 1517.003,501.204C1516.862,501.997 1516.406,504.561 1516.285,505.237C1516.268,505.333 1516.185,505.402 1516.088,505.402C1515.107,505.402 1510.119,505.402 1509.138,505.402C1509.041,505.402 1508.957,505.472 1508.941,505.568C1508.673,507.091 1506.646,518.625 1506.646,518.625C1506.421,519.883 1506.569,520.8 1507.089,521.375C1507.61,521.949 1508.454,522.237 1509.621,522.237L1513.104,522.237C1513.163,522.237 1513.22,522.263 1513.258,522.309C1513.296,522.355 1513.311,522.416 1513.3,522.474C1513.147,523.271 1512.655,525.835 1512.526,526.507C1512.508,526.601 1512.425,526.669 1512.33,526.669L1506.987,526.669C1504.47,526.669 1502.665,526.005 1501.572,524.675C1500.479,523.345 1500.146,521.542 1500.571,519.266C1500.571,519.266 1502.635,507.457 1502.953,505.637Z" style="fill:rgb(226,227,216);"/>
                </g>
                <g transform="matrix(5.190532,0,0,5.190532,-6673.586507,613.885324)">
                    <path d="M1533.148,527.332C1530.214,527.332 1527.682,526.765 1525.552,525.632C1523.423,524.499 1521.783,522.913 1520.632,520.876C1519.482,518.838 1518.907,516.486 1518.907,513.819C1518.907,512.219 1519.116,510.728 1519.532,509.344C1519.949,507.961 1520.559,506.711 1521.364,505.594C1522.168,504.478 1523.15,503.526 1524.308,502.738C1525.467,501.951 1526.79,501.349 1528.278,500.932C1529.766,500.515 1531.389,500.307 1533.148,500.307C1536.141,500.307 1538.702,500.876 1540.831,502.013C1542.96,503.151 1544.592,504.73 1545.725,506.751C1546.859,508.772 1547.426,511.128 1547.426,513.819C1547.426,515.419 1547.216,516.913 1546.795,518.301C1546.374,519.688 1545.765,520.938 1544.969,522.051C1544.173,523.163 1543.196,524.113 1542.037,524.901C1540.879,525.688 1539.553,526.29 1538.061,526.707C1536.57,527.124 1534.932,527.332 1533.148,527.332ZM1533.148,522.799C1534.247,522.799 1535.233,522.658 1536.107,522.375C1536.981,522.092 1537.739,521.684 1538.379,521.151C1539.02,520.618 1539.564,519.981 1540.009,519.241C1540.454,518.499 1540.781,517.667 1540.989,516.743C1541.197,515.818 1541.301,514.831 1541.301,513.782C1541.301,511.992 1541.003,510.431 1540.408,509.098C1539.813,507.766 1538.908,506.723 1537.692,505.97C1536.477,505.217 1534.963,504.84 1533.148,504.84C1532.074,504.84 1531.098,504.981 1530.22,505.264C1529.342,505.547 1528.586,505.949 1527.953,506.469C1527.321,506.99 1526.78,507.614 1526.331,508.343C1525.881,509.071 1525.552,509.889 1525.344,510.797C1525.136,511.705 1525.032,512.7 1525.032,513.782C1525.032,515.548 1525.335,517.109 1525.943,518.466C1526.551,519.823 1527.458,520.885 1528.665,521.651C1529.872,522.416 1531.367,522.799 1533.148,522.799Z" style="fill:rgb(105,226,40);"/>
                </g>
                <g transform="matrix(5.190532,0,0,5.190532,-6673.586507,613.885324)">
                    <path d="M1561.747,517.268C1561.71,517.218 1561.652,517.188 1561.589,517.187C1561.527,517.186 1561.468,517.215 1561.429,517.264C1560.398,518.58 1554.762,525.77 1554.117,526.593C1554.079,526.641 1554.021,526.669 1553.96,526.669L1547.844,526.669C1547.767,526.669 1547.696,526.625 1547.663,526.555C1547.63,526.485 1547.641,526.402 1547.69,526.342C1549.26,524.435 1557.202,514.788 1558.202,513.573C1558.263,513.499 1558.263,513.394 1558.203,513.32C1557.252,512.143 1549.968,503.131 1548.484,501.295C1548.435,501.235 1548.426,501.153 1548.459,501.083C1548.492,501.014 1548.562,500.969 1548.639,500.969C1550.081,500.969 1554.787,500.969 1555.534,500.969C1555.597,500.969 1555.656,500.999 1555.694,501.05C1556.276,501.828 1560.925,508.038 1561.844,509.265C1561.881,509.315 1561.94,509.345 1562.002,509.345C1562.065,509.346 1562.124,509.317 1562.162,509.268C1563.109,508.046 1567.939,501.814 1568.534,501.047C1568.572,500.998 1568.63,500.969 1568.692,500.969C1569.376,500.969 1573.445,500.969 1574.781,500.969C1574.858,500.969 1574.929,501.014 1574.962,501.084C1574.995,501.154 1574.984,501.237 1574.935,501.297C1573.444,503.1 1566.27,511.779 1565.318,512.93C1565.257,513.003 1565.257,513.109 1565.317,513.183C1566.324,514.426 1574.408,524.404 1575.979,526.344C1576.028,526.403 1576.038,526.486 1576.004,526.556C1575.971,526.625 1575.901,526.669 1575.824,526.669L1568.831,526.669C1568.767,526.669 1568.708,526.639 1568.67,526.589C1568.045,525.748 1562.731,518.592 1561.747,517.268Z" style="fill:rgb(105,226,40);"/>
                </g>
                <g transform="matrix(5.762788,0,0,5.340315,-7197.087401,534.966655)">
                    <path d="M1391.824,523.814C1391.7,523.682 1391.578,523.547 1391.459,523.409C1390.415,522.187 1389.663,520.775 1389.203,519.171C1388.743,517.566 1388.646,515.844 1388.913,514.005C1388.943,513.788 1388.978,513.573 1389.017,513.36C1389.125,512.54 1389.29,511.745 1389.513,510.974C1389.945,509.479 1390.577,508.127 1391.41,506.916C1392.244,505.705 1393.244,504.652 1394.411,503.758C1395.579,502.863 1396.876,502.174 1398.302,501.692C1399.729,501.21 1401.272,500.969 1402.931,500.969C1403.001,500.969 1403.069,500.973 1403.133,500.981C1403.325,500.973 1403.518,500.969 1403.711,500.969C1405.68,500.969 1407.345,501.43 1408.705,502.352C1409.476,502.875 1410.142,503.486 1410.702,504.187C1410.724,504.215 1410.76,504.227 1410.794,504.218C1410.828,504.208 1410.853,504.178 1410.859,504.141C1410.944,503.625 1411.164,502.28 1411.241,501.815C1411.256,501.723 1411.331,501.655 1411.418,501.655C1412.168,501.655 1415.487,501.655 1416.367,501.655C1416.42,501.655 1416.47,501.68 1416.505,501.724C1416.539,501.768 1416.553,501.826 1416.544,501.883C1416.16,504.259 1412.89,524.463 1412.565,526.473C1412.55,526.566 1412.475,526.634 1412.388,526.634C1411.632,526.634 1408.27,526.634 1407.384,526.634C1407.33,526.634 1407.28,526.609 1407.246,526.565C1407.211,526.521 1407.197,526.462 1407.206,526.406C1407.276,525.983 1407.424,525.079 1407.498,524.626C1407.505,524.586 1407.487,524.545 1407.454,524.525C1407.421,524.504 1407.38,524.509 1407.351,524.535C1406.763,525.075 1406.119,525.555 1405.418,525.973C1403.915,526.871 1402.215,527.319 1400.319,527.319C1398.48,527.319 1396.804,526.973 1395.293,526.28C1394.081,525.724 1393.018,524.998 1392.106,524.102C1392.01,524.008 1391.916,523.912 1391.824,523.814ZM1409.19,514.314C1409.253,513.775 1409.284,513.221 1409.284,512.651C1409.284,511.234 1409.016,509.984 1408.48,508.9C1407.944,507.815 1407.188,506.964 1406.213,506.345C1405.239,505.726 1404.062,505.417 1402.682,505.417C1401.67,505.417 1400.733,505.576 1399.871,505.896C1399.008,506.215 1398.234,506.676 1397.548,507.279C1396.862,507.882 1396.275,508.601 1395.788,509.434C1395.3,510.268 1394.927,511.202 1394.668,512.239C1394.413,513.262 1394.284,514.361 1394.281,515.536L1394.281,515.577C1394.286,516.945 1394.541,518.175 1395.045,519.269C1395.555,520.373 1396.292,521.243 1397.255,521.879C1398.219,522.513 1399.394,522.831 1400.781,522.831C1400.837,522.831 1400.891,522.845 1400.943,522.871C1401.872,522.854 1402.746,522.695 1403.565,522.393C1404.431,522.074 1405.214,521.619 1405.915,521.028C1406.616,520.437 1407.216,519.719 1407.715,518.874C1408.214,518.028 1408.6,517.077 1408.873,516.02C1408.917,515.852 1408.957,515.682 1408.994,515.51L1409.19,514.314Z" style="fill:rgb(226,227,216);"/>
                </g>
            </g>
        </g>
    </g>
    <defs>
        <linearGradient id="_Linear1" x1="0" y1="0" x2="1" y2="0" gradientUnits="userSpaceOnUse" gradientTransform="matrix(267.539527,0,0,248.846589,1063.163138,1932.551233)"><stop offset="0" style="stop-color:rgb(105,226,40);stop-opacity:1"/><stop offset="0.52" style="stop-color:rgb(62,139,22);stop-opacity:1"/><stop offset="1" style="stop-color:rgb(46,108,15);stop-opacity:1"/></linearGradient>
    </defs>
</svg>
