<?xml version="1.0" encoding="UTF-8" standalone="no"?>
<!DOCTYPE svg PUBLIC "-//W3C//DTD SVG 1.1//EN" "http://www.w3.org/Graphics/SVG/1.1/DTD/svg11.dtd">
<svg width="100%" height="100%" viewBox="0 0 1392 248" version="1.1" xmlns="http://www.w3.org/2000/svg" xmlns:xlink="http://www.w3.org/1999/xlink" xml:space="preserve" xmlns:serif="http://www.serif.com/" style="fill-rule:evenodd;clip-rule:evenodd;stroke-linejoin:round;stroke-miterlimit:2;">
    <g transform="matrix(1,0,0,1,-1058.042741,-1809.090807)">
        <g transform="matrix(1,0,0,1,-2.195384,0)">
            <g transform="matrix(5.190532,0,0,5.190532,-5859.074144,-706.690556)">
                <g transform="matrix(50,0,0,50,1390.352615,526.669447)">
                    <path d="M0.047,-0.076C0.047,-0.081 0.048,-0.086 0.048,-0.092C0.049,-0.097 0.05,-0.103 0.051,-0.108L0.121,-0.434L0.054,-0.434L0.073,-0.519L0.138,-0.519L0.175,-0.691L0.285,-0.691L0.248,-0.519L0.356,-0.519L0.338,-0.434L0.231,-0.434L0.169,-0.144C0.168,-0.141 0.167,-0.138 0.167,-0.136C0.167,-0.134 0.167,-0.131 0.167,-0.129C0.167,-0.115 0.17,-0.106 0.178,-0.1C0.186,-0.094 0.196,-0.091 0.208,-0.091C0.218,-0.091 0.228,-0.092 0.238,-0.095C0.247,-0.097 0.256,-0.1 0.264,-0.104C0.272,-0.107 0.279,-0.109 0.284,-0.112L0.288,-0.025C0.278,-0.019 0.265,-0.013 0.25,-0.007C0.235,-0.002 0.219,0.003 0.202,0.005C0.184,0.009 0.167,0.01 0.148,0.01C0.12,0.01 0.096,0.003 0.076,-0.01C0.057,-0.024 0.047,-0.046 0.047,-0.076Z" style="fill:rgb(226,227,216);fill-rule:nonzero;"/>
                </g>
                <g transform="matrix(50,0,0,50,1410.602615,526.669447)">
                    <path d="M0.112,-0.519L0.222,-0.519L0.11,-0L0,-0L0.112,-0.519ZM0.155,-0.726L0.265,-0.726L0.24,-0.605L0.13,-0.605L0.155,-0.726Z" style="fill:rgb(226,227,216);fill-rule:nonzero;"/>
                </g>
                <g transform="matrix(50,0,0,50,1424.552615,526.669447)">
                    <path d="M0.112,-0.519L0.211,-0.519L0.189,-0.414C0.215,-0.449 0.246,-0.477 0.283,-0.497C0.32,-0.517 0.357,-0.527 0.396,-0.527C0.423,-0.527 0.445,-0.522 0.462,-0.513C0.48,-0.503 0.493,-0.49 0.502,-0.472C0.511,-0.455 0.516,-0.434 0.517,-0.409C0.536,-0.435 0.557,-0.457 0.579,-0.474C0.602,-0.491 0.625,-0.505 0.65,-0.514C0.675,-0.523 0.701,-0.527 0.726,-0.527C0.756,-0.527 0.779,-0.522 0.795,-0.511C0.812,-0.501 0.824,-0.486 0.832,-0.468C0.839,-0.449 0.843,-0.428 0.843,-0.403C0.843,-0.391 0.842,-0.378 0.84,-0.364C0.838,-0.349 0.836,-0.333 0.832,-0.316L0.764,-0L0.654,-0L0.716,-0.29C0.721,-0.314 0.724,-0.334 0.724,-0.352C0.724,-0.378 0.718,-0.398 0.707,-0.41C0.696,-0.423 0.68,-0.429 0.66,-0.429C0.641,-0.429 0.622,-0.424 0.602,-0.414C0.582,-0.404 0.564,-0.39 0.546,-0.371C0.529,-0.353 0.514,-0.331 0.502,-0.307L0.437,-0L0.327,-0L0.389,-0.29C0.392,-0.303 0.394,-0.314 0.395,-0.324C0.397,-0.335 0.397,-0.344 0.397,-0.354C0.397,-0.38 0.392,-0.399 0.381,-0.411C0.37,-0.423 0.355,-0.429 0.334,-0.429C0.306,-0.429 0.277,-0.418 0.248,-0.396C0.218,-0.373 0.195,-0.344 0.177,-0.308L0.11,-0L0,-0L0.112,-0.519Z" style="fill:rgb(226,227,216);fill-rule:nonzero;"/>
                </g>
                <g transform="matrix(50,0,0,50,1469.402615,526.669447)">
                    <path d="M0.229,0.01C0.185,0.01 0.148,0 0.116,-0.019C0.085,-0.038 0.061,-0.064 0.044,-0.097C0.028,-0.13 0.02,-0.167 0.02,-0.209C0.02,-0.252 0.028,-0.292 0.044,-0.33C0.06,-0.368 0.083,-0.402 0.112,-0.432C0.141,-0.462 0.176,-0.485 0.215,-0.502C0.254,-0.519 0.296,-0.527 0.342,-0.527C0.378,-0.527 0.41,-0.522 0.437,-0.511C0.464,-0.5 0.485,-0.484 0.5,-0.463C0.515,-0.442 0.522,-0.416 0.522,-0.384C0.522,-0.332 0.498,-0.291 0.45,-0.264C0.402,-0.236 0.328,-0.222 0.229,-0.222C0.211,-0.222 0.19,-0.223 0.166,-0.224C0.143,-0.225 0.116,-0.226 0.087,-0.229L0.102,-0.3C0.129,-0.299 0.152,-0.298 0.173,-0.296C0.193,-0.295 0.213,-0.294 0.231,-0.294C0.279,-0.294 0.316,-0.298 0.343,-0.305C0.371,-0.312 0.39,-0.323 0.402,-0.336C0.414,-0.349 0.42,-0.365 0.42,-0.382C0.42,-0.397 0.417,-0.409 0.409,-0.418C0.402,-0.427 0.391,-0.434 0.378,-0.439C0.364,-0.444 0.349,-0.446 0.33,-0.446C0.3,-0.446 0.273,-0.44 0.249,-0.427C0.224,-0.414 0.203,-0.396 0.185,-0.374C0.167,-0.351 0.154,-0.325 0.144,-0.297C0.135,-0.269 0.13,-0.239 0.13,-0.207C0.13,-0.182 0.134,-0.159 0.143,-0.139C0.151,-0.118 0.164,-0.102 0.181,-0.089C0.199,-0.077 0.221,-0.071 0.248,-0.071C0.276,-0.071 0.304,-0.078 0.331,-0.093C0.357,-0.107 0.378,-0.126 0.394,-0.151L0.481,-0.124C0.465,-0.098 0.443,-0.075 0.416,-0.055C0.389,-0.034 0.36,-0.018 0.327,-0.007C0.295,0.004 0.263,0.01 0.229,0.01Z" style="fill:rgb(226,227,216);fill-rule:nonzero;"/>
                </g>
                <g transform="matrix(50,0,0,50,1498.652615,526.669447)">
                    <path d="M0.205,0.01C0.166,0.01 0.133,0 0.105,-0.019C0.077,-0.038 0.056,-0.064 0.041,-0.096C0.026,-0.128 0.019,-0.164 0.019,-0.204C0.019,-0.246 0.027,-0.287 0.042,-0.325C0.058,-0.364 0.079,-0.398 0.106,-0.428C0.133,-0.458 0.163,-0.482 0.198,-0.5C0.232,-0.518 0.269,-0.527 0.307,-0.527C0.345,-0.527 0.377,-0.517 0.403,-0.496C0.429,-0.476 0.447,-0.45 0.457,-0.42L0.522,-0.73L0.633,-0.73L0.505,-0.13C0.504,-0.127 0.504,-0.124 0.503,-0.122C0.503,-0.119 0.503,-0.117 0.503,-0.115C0.503,-0.102 0.511,-0.095 0.526,-0.094L0.506,-0C0.497,0.001 0.488,0.002 0.481,0.004C0.473,0.005 0.467,0.005 0.461,0.005C0.44,0.005 0.424,0.001 0.413,-0.008C0.401,-0.017 0.395,-0.03 0.395,-0.046C0.395,-0.049 0.396,-0.053 0.396,-0.057C0.397,-0.061 0.398,-0.066 0.399,-0.073C0.4,-0.079 0.401,-0.086 0.403,-0.094C0.377,-0.061 0.347,-0.035 0.311,-0.017C0.275,0.001 0.24,0.01 0.205,0.01ZM0.253,-0.084C0.266,-0.084 0.28,-0.087 0.295,-0.092C0.31,-0.097 0.325,-0.104 0.339,-0.114C0.354,-0.123 0.367,-0.134 0.379,-0.146C0.391,-0.158 0.401,-0.172 0.408,-0.186L0.436,-0.322C0.434,-0.343 0.427,-0.362 0.415,-0.378C0.404,-0.395 0.39,-0.408 0.374,-0.418C0.357,-0.428 0.339,-0.433 0.321,-0.433C0.296,-0.433 0.272,-0.427 0.25,-0.415C0.228,-0.403 0.208,-0.386 0.191,-0.366C0.173,-0.346 0.16,-0.323 0.15,-0.298C0.14,-0.273 0.135,-0.248 0.135,-0.222C0.135,-0.196 0.14,-0.172 0.149,-0.152C0.159,-0.132 0.172,-0.115 0.19,-0.103C0.208,-0.09 0.229,-0.084 0.253,-0.084Z" style="fill:rgb(105,226,40);fill-rule:nonzero;"/>
                </g>
                <g transform="matrix(50,0,0,50,1530.352615,526.669447)">
                    <path d="M0.205,0.01C0.166,0.01 0.133,0 0.105,-0.019C0.077,-0.038 0.056,-0.064 0.041,-0.096C0.026,-0.128 0.019,-0.164 0.019,-0.204C0.019,-0.246 0.027,-0.287 0.042,-0.325C0.058,-0.364 0.079,-0.398 0.106,-0.428C0.133,-0.458 0.163,-0.482 0.198,-0.5C0.232,-0.518 0.269,-0.527 0.307,-0.527C0.345,-0.527 0.377,-0.517 0.403,-0.496C0.429,-0.476 0.447,-0.45 0.457,-0.42L0.478,-0.519L0.589,-0.519L0.505,-0.135C0.504,-0.131 0.504,-0.129 0.503,-0.126C0.503,-0.124 0.503,-0.122 0.503,-0.12C0.503,-0.107 0.511,-0.1 0.526,-0.099L0.506,-0.005C0.497,-0.004 0.488,-0.003 0.481,-0.002C0.473,-0.001 0.467,-0 0.461,-0C0.44,-0 0.424,-0.004 0.413,-0.013C0.401,-0.021 0.396,-0.033 0.396,-0.049C0.396,-0.052 0.396,-0.056 0.396,-0.06C0.397,-0.065 0.398,-0.07 0.399,-0.075C0.4,-0.081 0.401,-0.087 0.403,-0.094C0.377,-0.061 0.347,-0.035 0.311,-0.017C0.275,0.001 0.24,0.01 0.205,0.01ZM0.253,-0.084C0.266,-0.084 0.28,-0.087 0.295,-0.092C0.31,-0.097 0.325,-0.104 0.339,-0.114C0.354,-0.123 0.367,-0.134 0.379,-0.146C0.391,-0.158 0.401,-0.172 0.408,-0.186L0.436,-0.322C0.434,-0.343 0.427,-0.362 0.415,-0.378C0.404,-0.395 0.39,-0.408 0.374,-0.418C0.357,-0.428 0.339,-0.433 0.321,-0.433C0.296,-0.433 0.272,-0.427 0.25,-0.415C0.228,-0.403 0.208,-0.386 0.191,-0.366C0.173,-0.346 0.16,-0.323 0.15,-0.298C0.14,-0.273 0.135,-0.248 0.135,-0.222C0.135,-0.196 0.14,-0.172 0.149,-0.152C0.159,-0.132 0.172,-0.115 0.19,-0.103C0.208,-0.09 0.229,-0.084 0.253,-0.084Z" style="fill:rgb(105,226,40);fill-rule:nonzero;"/>
                </g>
                <g transform="matrix(50,0,0,50,1562.602615,526.669447)">
                    <path d="M0.112,-0.519L0.214,-0.519L0.188,-0.403C0.214,-0.439 0.242,-0.467 0.274,-0.489C0.306,-0.511 0.338,-0.522 0.369,-0.522C0.376,-0.522 0.381,-0.522 0.385,-0.522C0.389,-0.521 0.392,-0.521 0.395,-0.52L0.374,-0.424C0.335,-0.423 0.297,-0.414 0.262,-0.395C0.227,-0.377 0.199,-0.351 0.178,-0.318L0.11,-0L0,-0L0.112,-0.519Z" style="fill:rgb(105,226,40);fill-rule:nonzero;"/>
                </g>
                <g transform="matrix(50,0,0,50,1583.402615,526.669447)">
                    <path d="M0.047,-0.076C0.047,-0.081 0.048,-0.086 0.048,-0.092C0.049,-0.097 0.05,-0.103 0.051,-0.108L0.121,-0.434L0.054,-0.434L0.073,-0.519L0.138,-0.519L0.175,-0.691L0.285,-0.691L0.248,-0.519L0.356,-0.519L0.338,-0.434L0.231,-0.434L0.169,-0.144C0.168,-0.141 0.167,-0.138 0.167,-0.136C0.167,-0.134 0.167,-0.131 0.167,-0.129C0.167,-0.115 0.17,-0.106 0.178,-0.1C0.186,-0.094 0.196,-0.091 0.208,-0.091C0.218,-0.091 0.228,-0.092 0.238,-0.095C0.247,-0.097 0.256,-0.1 0.264,-0.104C0.272,-0.107 0.279,-0.109 0.284,-0.112L0.288,-0.025C0.278,-0.019 0.265,-0.013 0.25,-0.007C0.235,-0.002 0.219,0.003 0.202,0.005C0.184,0.009 0.167,0.01 0.148,0.01C0.12,0.01 0.096,0.003 0.076,-0.01C0.057,-0.024 0.047,-0.046 0.047,-0.076Z" style="fill:rgb(105,226,40);fill-rule:nonzero;"/>
                </g>
                <g transform="matrix(50,0,0,50,1601.152615,526.669447)">
                </g>
            </g>
            <g>
                <g transform="matrix(0,4.197935,4.197935,-0,-11225.989298,-7609.370783)">
                    <path d="M2302.541,2926.731C2302.608,2927.192 2302.643,2927.661 2302.643,2928.135L2302.643,2951.243C2302.643,2951.891 2302.384,2952.513 2301.925,2952.971L2274.976,2979.822C2274.505,2980.291 2273.735,2980.529 2273.118,2980.534C2283.914,2961.501 2301.069,2937.092 2302.541,2926.731Z" style="fill:rgb(46,108,15);"/>
                </g>
                <g transform="matrix(0,-4.197935,4.197935,0,-11225.989298,11475.436117)">
                    <path d="M2302.541,2926.731C2302.608,2927.192 2302.643,2927.661 2302.643,2928.135L2302.643,2951.243C2302.643,2951.891 2302.384,2952.513 2301.925,2952.971L2274.976,2979.822C2274.505,2980.291 2273.735,2980.529 2273.118,2980.534C2283.914,2961.501 2301.069,2937.092 2302.541,2926.731Z" style="fill:rgb(105,226,40);"/>
                </g>
                <g transform="matrix(0,1.715803,1.734125,-0,-4364.323757,-2818.331387)">
                    <path d="M2769.179,3258.372L2769.179,3186.06L2841.166,3128.127C2841.166,3151.015 2796.793,3210.202 2769.179,3258.372Z" style="fill:rgb(105,226,40);"/>
                </g>
                <g transform="matrix(0,-1.715803,1.734125,0,-4364.323757,6684.396721)">
                    <path d="M2769.179,3258.372L2769.179,3186.06L2841.166,3128.127C2841.166,3151.015 2796.793,3210.202 2769.179,3258.372Z" style="fill:rgb(46,108,15);"/>
                </g>
            </g>
        </g>
    </g>
</svg>
