<?xml version="1.0" encoding="UTF-8" standalone="no"?>
<!DOCTYPE svg PUBLIC "-//W3C//DTD SVG 1.1//EN" "http://www.w3.org/Graphics/SVG/1.1/DTD/svg11.dtd">
<svg width="100%" height="100%" viewBox="0 0 1381 248" version="1.1" xmlns="http://www.w3.org/2000/svg" xmlns:xlink="http://www.w3.org/1999/xlink" xml:space="preserve" xmlns:serif="http://www.serif.com/" style="fill-rule:evenodd;clip-rule:evenodd;stroke-linejoin:round;stroke-miterlimit:2;">
    <g transform="matrix(1,0,0,1,-1060.238125,-1809.090807)">
        <g>
            <g transform="matrix(5.190532,0,0,5.190532,-5848.477058,-706.690556)">
                <g transform="matrix(50,0,0,50,1390.352615,526.669447)">
                    <path d="M0.048,-0.07C0.048,-0.075 0.048,-0.08 0.049,-0.085C0.05,-0.09 0.05,-0.094 0.051,-0.099L0.126,-0.45L0.058,-0.45L0.073,-0.519L0.14,-0.519L0.177,-0.693L0.265,-0.693L0.228,-0.519L0.339,-0.519L0.324,-0.45L0.214,-0.45L0.145,-0.126C0.144,-0.123 0.144,-0.121 0.144,-0.119C0.143,-0.116 0.143,-0.114 0.143,-0.111C0.143,-0.097 0.147,-0.087 0.156,-0.081C0.165,-0.074 0.175,-0.071 0.188,-0.071C0.199,-0.071 0.21,-0.073 0.221,-0.075C0.231,-0.079 0.24,-0.082 0.248,-0.085C0.256,-0.088 0.262,-0.091 0.266,-0.093L0.271,-0.023C0.263,-0.018 0.252,-0.012 0.239,-0.007C0.226,-0.002 0.211,0.003 0.194,0.005C0.177,0.009 0.16,0.01 0.142,0.01C0.115,0.01 0.093,0.004 0.075,-0.009C0.057,-0.023 0.048,-0.043 0.048,-0.07Z" style="fill:rgb(226,227,216);fill-rule:nonzero;"/>
                </g>
                <g transform="matrix(50,0,0,50,1409.752615,526.669447)">
                    <path d="M0.116,-0.519L0.204,-0.519L0.093,-0L0.005,-0L0.116,-0.519ZM0.16,-0.727L0.248,-0.727L0.225,-0.617L0.137,-0.617L0.16,-0.727Z" style="fill:rgb(226,227,216);fill-rule:nonzero;"/>
                </g>
                <g transform="matrix(50,0,0,50,1423.052615,526.669447)">
                    <path d="M0.116,-0.519L0.196,-0.519L0.172,-0.407C0.199,-0.444 0.231,-0.473 0.268,-0.495C0.305,-0.516 0.343,-0.527 0.382,-0.527C0.408,-0.527 0.43,-0.522 0.448,-0.512C0.465,-0.502 0.479,-0.488 0.488,-0.469C0.497,-0.451 0.502,-0.428 0.503,-0.401C0.524,-0.429 0.545,-0.452 0.568,-0.47C0.591,-0.489 0.615,-0.503 0.64,-0.513C0.665,-0.522 0.691,-0.527 0.717,-0.527C0.746,-0.527 0.768,-0.522 0.785,-0.511C0.802,-0.501 0.814,-0.486 0.822,-0.467C0.829,-0.448 0.833,-0.426 0.833,-0.401C0.833,-0.387 0.832,-0.373 0.83,-0.357C0.828,-0.342 0.825,-0.326 0.822,-0.31L0.755,-0L0.667,-0L0.729,-0.289C0.735,-0.317 0.738,-0.341 0.738,-0.362C0.738,-0.391 0.732,-0.412 0.72,-0.427C0.707,-0.441 0.689,-0.448 0.666,-0.448C0.644,-0.448 0.622,-0.442 0.6,-0.431C0.578,-0.419 0.557,-0.403 0.538,-0.383C0.519,-0.362 0.503,-0.339 0.49,-0.312L0.424,-0L0.336,-0L0.398,-0.29C0.401,-0.304 0.404,-0.318 0.405,-0.33C0.406,-0.341 0.407,-0.353 0.407,-0.363C0.407,-0.392 0.401,-0.414 0.389,-0.427C0.377,-0.441 0.359,-0.448 0.336,-0.448C0.303,-0.448 0.271,-0.436 0.239,-0.411C0.206,-0.386 0.18,-0.353 0.16,-0.313L0.093,-0L0.005,-0L0.116,-0.519Z" style="fill:rgb(226,227,216);fill-rule:nonzero;"/>
                </g>
                <g transform="matrix(50,0,0,50,1467.702615,526.669447)">
                    <path d="M0.228,0.01C0.185,0.01 0.148,0 0.117,-0.019C0.086,-0.039 0.063,-0.065 0.047,-0.098C0.031,-0.131 0.023,-0.168 0.023,-0.209C0.023,-0.251 0.031,-0.291 0.046,-0.329C0.062,-0.367 0.084,-0.401 0.113,-0.431C0.142,-0.46 0.175,-0.484 0.213,-0.501C0.252,-0.518 0.294,-0.527 0.339,-0.527C0.373,-0.527 0.403,-0.522 0.429,-0.511C0.456,-0.501 0.476,-0.485 0.491,-0.464C0.506,-0.444 0.513,-0.418 0.513,-0.387C0.513,-0.335 0.49,-0.295 0.443,-0.268C0.396,-0.241 0.325,-0.227 0.228,-0.227C0.21,-0.227 0.189,-0.228 0.166,-0.229C0.143,-0.23 0.116,-0.231 0.085,-0.234L0.097,-0.294C0.126,-0.293 0.151,-0.291 0.173,-0.29C0.194,-0.289 0.213,-0.288 0.231,-0.288C0.282,-0.288 0.322,-0.292 0.351,-0.301C0.38,-0.309 0.402,-0.321 0.415,-0.336C0.427,-0.352 0.434,-0.369 0.434,-0.388C0.434,-0.405 0.43,-0.419 0.421,-0.429C0.413,-0.44 0.402,-0.448 0.387,-0.453C0.371,-0.458 0.354,-0.461 0.333,-0.461C0.3,-0.461 0.27,-0.454 0.242,-0.44C0.216,-0.426 0.192,-0.408 0.173,-0.384C0.153,-0.36 0.138,-0.333 0.128,-0.303C0.117,-0.273 0.112,-0.242 0.112,-0.209C0.112,-0.182 0.117,-0.157 0.126,-0.134C0.135,-0.11 0.15,-0.091 0.169,-0.077C0.188,-0.063 0.213,-0.056 0.242,-0.056C0.273,-0.056 0.303,-0.064 0.332,-0.08C0.361,-0.095 0.384,-0.116 0.401,-0.143L0.472,-0.122C0.456,-0.097 0.435,-0.074 0.409,-0.054C0.383,-0.034 0.354,-0.018 0.324,-0.007C0.293,0.004 0.261,0.01 0.228,0.01Z" style="fill:rgb(226,227,216);fill-rule:nonzero;"/>
                </g>
                <g transform="matrix(50,0,0,50,1496.652615,526.669447)">
                    <path d="M0.208,0.01C0.169,0.01 0.136,0 0.108,-0.019C0.08,-0.039 0.059,-0.065 0.044,-0.098C0.029,-0.13 0.022,-0.166 0.022,-0.205C0.022,-0.247 0.03,-0.287 0.045,-0.326C0.061,-0.364 0.083,-0.398 0.11,-0.428C0.136,-0.458 0.167,-0.482 0.202,-0.5C0.237,-0.518 0.273,-0.527 0.311,-0.527C0.351,-0.527 0.384,-0.516 0.411,-0.494C0.438,-0.472 0.456,-0.446 0.467,-0.415L0.534,-0.73L0.622,-0.73L0.49,-0.108C0.489,-0.105 0.489,-0.103 0.488,-0.101C0.488,-0.099 0.488,-0.097 0.488,-0.095C0.488,-0.083 0.495,-0.077 0.51,-0.076L0.494,-0C0.487,0.001 0.48,0.002 0.475,0.003C0.469,0.004 0.464,0.004 0.459,0.004C0.44,0.004 0.426,-0 0.416,-0.009C0.407,-0.018 0.402,-0.028 0.402,-0.041C0.402,-0.045 0.402,-0.049 0.403,-0.054C0.404,-0.059 0.405,-0.065 0.406,-0.072C0.407,-0.08 0.409,-0.088 0.411,-0.097C0.385,-0.064 0.353,-0.038 0.317,-0.019C0.28,0 0.243,0.01 0.208,0.01ZM0.246,-0.066C0.261,-0.066 0.277,-0.069 0.293,-0.075C0.31,-0.081 0.327,-0.089 0.344,-0.1C0.36,-0.11 0.375,-0.122 0.388,-0.137C0.401,-0.151 0.411,-0.166 0.418,-0.182L0.449,-0.33C0.446,-0.353 0.439,-0.373 0.426,-0.391C0.413,-0.409 0.398,-0.424 0.38,-0.435C0.361,-0.446 0.342,-0.451 0.321,-0.451C0.293,-0.451 0.267,-0.444 0.242,-0.431C0.217,-0.417 0.196,-0.399 0.176,-0.377C0.158,-0.354 0.142,-0.329 0.132,-0.302C0.121,-0.275 0.115,-0.247 0.115,-0.219C0.115,-0.191 0.12,-0.165 0.131,-0.142C0.142,-0.119 0.157,-0.101 0.176,-0.087C0.196,-0.073 0.219,-0.066 0.246,-0.066Z" style="fill:rgb(105,226,40);fill-rule:nonzero;"/>
                </g>
                <g transform="matrix(50,0,0,50,1527.952615,526.669447)">
                    <path d="M0.208,0.01C0.169,0.01 0.136,0 0.108,-0.019C0.08,-0.039 0.059,-0.065 0.044,-0.098C0.029,-0.13 0.022,-0.166 0.022,-0.205C0.022,-0.247 0.03,-0.287 0.045,-0.326C0.061,-0.364 0.083,-0.398 0.11,-0.428C0.136,-0.458 0.167,-0.482 0.202,-0.5C0.237,-0.518 0.273,-0.527 0.311,-0.527C0.351,-0.527 0.384,-0.516 0.411,-0.494C0.438,-0.472 0.456,-0.446 0.467,-0.415L0.49,-0.519L0.578,-0.519L0.49,-0.112C0.489,-0.109 0.489,-0.107 0.488,-0.105C0.488,-0.103 0.488,-0.101 0.488,-0.099C0.488,-0.087 0.495,-0.081 0.51,-0.08L0.494,-0.004C0.487,-0.003 0.48,-0.003 0.475,-0.002C0.469,-0.001 0.464,-0 0.459,-0C0.44,-0 0.426,-0.004 0.416,-0.012C0.407,-0.021 0.402,-0.031 0.402,-0.043C0.402,-0.047 0.402,-0.051 0.403,-0.056C0.404,-0.061 0.405,-0.067 0.406,-0.074C0.407,-0.081 0.409,-0.089 0.411,-0.097C0.385,-0.064 0.353,-0.038 0.317,-0.019C0.28,0 0.243,0.01 0.208,0.01ZM0.246,-0.066C0.261,-0.066 0.277,-0.069 0.293,-0.075C0.31,-0.081 0.327,-0.089 0.344,-0.1C0.36,-0.11 0.375,-0.122 0.388,-0.137C0.401,-0.151 0.411,-0.166 0.418,-0.182L0.449,-0.33C0.446,-0.353 0.439,-0.373 0.426,-0.391C0.413,-0.409 0.398,-0.424 0.38,-0.435C0.361,-0.446 0.342,-0.451 0.321,-0.451C0.293,-0.451 0.267,-0.444 0.242,-0.431C0.217,-0.417 0.196,-0.399 0.176,-0.377C0.158,-0.354 0.142,-0.329 0.132,-0.302C0.121,-0.275 0.115,-0.247 0.115,-0.219C0.115,-0.191 0.12,-0.165 0.131,-0.142C0.142,-0.119 0.157,-0.101 0.176,-0.087C0.196,-0.073 0.219,-0.066 0.246,-0.066Z" style="fill:rgb(105,226,40);fill-rule:nonzero;"/>
                </g>
                <g transform="matrix(50,0,0,50,1559.752615,526.669447)">
                    <path d="M0.116,-0.519L0.198,-0.519L0.172,-0.399C0.197,-0.434 0.226,-0.464 0.259,-0.486C0.291,-0.509 0.323,-0.52 0.355,-0.52C0.361,-0.52 0.366,-0.52 0.37,-0.519C0.375,-0.519 0.378,-0.519 0.381,-0.518L0.365,-0.442C0.324,-0.441 0.285,-0.43 0.248,-0.409C0.211,-0.387 0.182,-0.358 0.161,-0.32L0.093,-0L0.005,-0L0.116,-0.519Z" style="fill:rgb(105,226,40);fill-rule:nonzero;"/>
                </g>
                <g transform="matrix(50,0,0,50,1579.952615,526.669447)">
                    <path d="M0.048,-0.07C0.048,-0.075 0.048,-0.08 0.049,-0.085C0.05,-0.09 0.05,-0.094 0.051,-0.099L0.126,-0.45L0.058,-0.45L0.073,-0.519L0.14,-0.519L0.177,-0.693L0.265,-0.693L0.228,-0.519L0.339,-0.519L0.324,-0.45L0.214,-0.45L0.145,-0.126C0.144,-0.123 0.144,-0.121 0.144,-0.119C0.143,-0.116 0.143,-0.114 0.143,-0.111C0.143,-0.097 0.147,-0.087 0.156,-0.081C0.165,-0.074 0.175,-0.071 0.188,-0.071C0.199,-0.071 0.21,-0.073 0.221,-0.075C0.231,-0.079 0.24,-0.082 0.248,-0.085C0.256,-0.088 0.262,-0.091 0.266,-0.093L0.271,-0.023C0.263,-0.018 0.252,-0.012 0.239,-0.007C0.226,-0.002 0.211,0.003 0.194,0.005C0.177,0.009 0.16,0.01 0.142,0.01C0.115,0.01 0.093,0.004 0.075,-0.009C0.057,-0.023 0.048,-0.043 0.048,-0.07Z" style="fill:rgb(105,226,40);fill-rule:nonzero;"/>
                </g>
                <g transform="matrix(50,0,0,50,1596.852615,526.669447)">
                </g>
            </g>
            <g>
                <g transform="matrix(0,4.197935,4.197935,-0,-11225.989298,-7609.370783)">
                    <path d="M2302.541,2926.731C2302.608,2927.192 2302.643,2927.661 2302.643,2928.135L2302.643,2951.243C2302.643,2951.891 2302.384,2952.513 2301.925,2952.971L2274.976,2979.822C2274.505,2980.291 2273.735,2980.529 2273.118,2980.534C2283.914,2961.501 2301.069,2937.092 2302.541,2926.731Z" style="fill:rgb(46,108,15);"/>
                </g>
                <g transform="matrix(0,-4.197935,4.197935,0,-11225.989298,11475.436117)">
                    <path d="M2302.541,2926.731C2302.608,2927.192 2302.643,2927.661 2302.643,2928.135L2302.643,2951.243C2302.643,2951.891 2302.384,2952.513 2301.925,2952.971L2274.976,2979.822C2274.505,2980.291 2273.735,2980.529 2273.118,2980.534C2283.914,2961.501 2301.069,2937.092 2302.541,2926.731Z" style="fill:rgb(105,226,40);"/>
                </g>
                <g transform="matrix(0,1.715803,1.734125,-0,-4364.323757,-2818.331387)">
                    <path d="M2769.179,3258.372L2769.179,3186.06L2841.166,3128.127C2841.166,3151.015 2796.793,3210.202 2769.179,3258.372Z" style="fill:rgb(105,226,40);"/>
                </g>
                <g transform="matrix(0,-1.715803,1.734125,0,-4364.323757,6684.396721)">
                    <path d="M2769.179,3258.372L2769.179,3186.06L2841.166,3128.127C2841.166,3151.015 2796.793,3210.202 2769.179,3258.372Z" style="fill:rgb(46,108,15);"/>
                </g>
            </g>
        </g>
    </g>
</svg>
