<?xml version="1.0" encoding="UTF-8" standalone="no"?>
<!DOCTYPE svg PUBLIC "-//W3C//DTD SVG 1.1//EN" "http://www.w3.org/Graphics/SVG/1.1/DTD/svg11.dtd">
<svg width="100%" height="100%" viewBox="0 0 78 78" version="1.1" xmlns="http://www.w3.org/2000/svg" xmlns:xlink="http://www.w3.org/1999/xlink" xml:space="preserve" xmlns:serif="http://www.serif.com/" style="fill-rule:evenodd;clip-rule:evenodd;stroke-linejoin:round;stroke-miterlimit:2;">
    <g transform="matrix(1,0,0,1,-142.073052,-486.376244)">
        <g>
            <g transform="matrix(0.104167,0,0,0.104167,131.031386,575.334578)">
                <path d="M480,-110C428.886,-110 380.841,-119.646 335.886,-139.045C290.803,-158.499 251.562,-184.864 218.213,-218.213C184.864,-251.562 158.499,-290.803 139.045,-335.886C119.646,-380.841 110,-428.886 110,-480C110,-531.114 119.646,-579.159 139.045,-624.114C158.499,-669.197 184.864,-708.438 218.213,-741.787C251.562,-775.136 290.803,-801.501 335.886,-820.955C380.841,-840.354 428.886,-850 480,-850C531.114,-850 579.159,-840.354 624.114,-820.955C669.197,-801.501 708.438,-775.136 741.787,-741.787C775.136,-708.438 801.501,-669.197 820.955,-624.114C840.354,-579.159 850,-531.114 850,-480C850,-428.886 840.354,-380.841 820.955,-335.886C801.501,-290.803 775.136,-251.562 741.787,-218.213C708.438,-184.864 669.197,-158.499 624.114,-139.045C579.159,-119.646 531.114,-110 480,-110ZM480,-130C577.695,-130 660.41,-163.984 728.213,-231.787C796.016,-299.59 830,-382.305 830,-480C830,-497.364 828.907,-514.186 826.737,-530.465C824.428,-547.781 820.191,-564.518 814.035,-580.68C808.672,-594.756 793.704,-602.673 779.051,-599.184C766.185,-596.121 753.32,-593.821 740.454,-592.29C727.582,-590.757 714.097,-590 700,-590C643.925,-590 590.927,-601.998 541.014,-626.03C491.023,-650.1 448.442,-683.741 413.263,-726.943C406.582,-735.148 396.072,-739.227 385.605,-737.676C375.138,-736.126 366.261,-729.176 362.245,-719.387C342.517,-671.301 314.333,-629.521 277.652,-594.073C240.999,-558.651 198.328,-532.027 149.662,-514.162C137.851,-509.827 130,-498.582 130,-486L130,-480C130,-382.305 163.984,-299.59 231.787,-231.787C299.59,-163.984 382.305,-130 480,-130ZM324.5,-404.5C314.833,-414.167 310,-426 310,-440C310,-454 314.833,-465.833 324.5,-475.5C334.167,-485.167 346,-490 360,-490C374,-490 385.833,-485.167 395.5,-475.5C405.167,-465.833 410,-454 410,-440C410,-426 405.167,-414.167 395.5,-404.5C385.833,-394.833 374,-390 360,-390C346,-390 334.167,-394.833 324.5,-404.5ZM564.5,-404.5C554.833,-414.167 550,-426 550,-440C550,-454 554.833,-465.833 564.5,-475.5C574.167,-485.167 586,-490 600,-490C614,-490 625.833,-485.167 635.5,-475.5C645.167,-465.833 650,-454 650,-440C650,-426 645.167,-414.167 635.5,-404.5C625.833,-394.833 614,-390 600,-390C586,-390 574.167,-394.833 564.5,-404.5ZM421.757,-824.698C411.808,-823.277 403.231,-816.968 398.912,-807.893C394.592,-798.818 395.104,-788.183 400.275,-779.565C430.856,-728.598 472.326,-687.61 524.75,-656.665C577.334,-625.626 635.731,-610 700,-610C710.522,-610 720.668,-610.57 730.439,-611.698C739.363,-612.728 748.631,-613.928 758.243,-615.302C768.192,-616.723 776.769,-623.032 781.088,-632.107C785.408,-641.182 784.896,-651.817 779.725,-660.435C749.144,-711.402 707.674,-752.39 655.25,-783.335C602.666,-814.374 544.269,-830 480,-830C469.478,-830 459.332,-829.43 449.561,-828.302C440.637,-827.272 431.369,-826.072 421.757,-824.698ZM148.54,-590.487C144.61,-578.699 148.355,-565.708 157.956,-557.82C167.557,-549.932 181.027,-548.779 191.829,-554.921C228.996,-576.055 261.436,-603.371 289.129,-636.894C316.829,-670.425 337.61,-707.963 351.46,-749.513C355.39,-761.301 351.645,-774.292 342.044,-782.18C332.443,-790.068 318.973,-791.221 308.171,-785.079C271.004,-763.945 238.564,-736.629 210.871,-703.106C183.171,-669.575 162.39,-632.037 148.54,-590.487Z" style="fill:rgb(105,226,40);stroke:rgb(105,226,40);stroke-width:8px;"/>
            </g>
            <g transform="matrix(1,0,0,1,-304.207902,148.888545)">
                <path d="M479.172,340.54C480.174,340.397 481.139,340.272 482.069,340.165C483.086,340.047 484.143,339.988 485.239,339.988C491.934,339.988 498.017,341.615 503.494,344.849C508.955,348.072 513.275,352.342 516.461,357.651C516.999,358.548 517.86,359.964 517.41,360.909C516.96,361.854 515.259,362.204 514.223,362.352C513.222,362.495 512.256,362.62 511.327,362.728C510.309,362.845 509.252,362.904 508.156,362.904C501.461,362.904 495.378,361.277 489.901,358.043C484.44,354.82 480.12,350.55 476.935,345.241C476.396,344.344 475.82,343.082 476.27,342.137C476.72,341.191 478.136,340.688 479.172,340.54Z" style="fill:rgb(46,108,15);"/>
            </g>
            <g transform="matrix(1,0,0,1,-304.207902,148.888545)">
                <path d="M450.712,364.937C452.155,360.609 454.32,356.699 457.205,353.206C460.09,349.714 463.469,346.868 467.34,344.667C468.466,344.027 470.514,343.286 471.514,344.108C472.515,344.93 472.259,347.144 471.85,348.372C470.407,352.7 468.242,356.61 465.357,360.103C462.472,363.595 459.093,366.44 455.221,368.642C454.096,369.282 451.396,370.554 450.396,369.733C449.396,368.911 450.303,366.165 450.712,364.937Z" style="fill:rgb(46,108,15);"/>
            </g>
        </g>
    </g>
</svg>
