<?xml version="1.0" encoding="UTF-8" standalone="no"?>
<!DOCTYPE svg PUBLIC "-//W3C//DTD SVG 1.1//EN" "http://www.w3.org/Graphics/SVG/1.1/DTD/svg11.dtd">
<svg width="100%" height="100%" viewBox="0 0 62 79" version="1.1" xmlns="http://www.w3.org/2000/svg" xmlns:xlink="http://www.w3.org/1999/xlink" xml:space="preserve" xmlns:serif="http://www.serif.com/" style="fill-rule:evenodd;clip-rule:evenodd;stroke-linejoin:round;stroke-miterlimit:2;">
    <g transform="matrix(1,0,0,1,-655.303469,-480.407211)">
        <g>
            <g transform="matrix(0.104167,0,0,0.104167,636.011803,569.448877)">
                <path d="M720,-110L240,-110C226.255,-110 214.501,-114.925 204.713,-124.713C194.925,-134.501 190,-146.255 190,-160L190,-800C190,-813.745 194.925,-825.499 204.713,-835.287C214.501,-845.075 226.255,-850 240,-850L720,-850C733.745,-850 745.499,-845.075 755.287,-835.287C765.075,-825.499 770,-813.745 770,-800L770,-160C770,-146.255 765.075,-134.501 755.287,-124.713C745.499,-114.925 733.745,-110 720,-110ZM210,-160C210,-143.431 223.431,-130 240,-130L720,-130C736.569,-130 750,-143.431 750,-160L750,-800C750,-816.569 736.569,-830 720,-830L240,-830C223.431,-830 210,-816.569 210,-800L210,-160ZM350,-230L350,-250L610,-250L610,-230L350,-230ZM350,-350L350,-370L610,-370L610,-350L350,-350ZM480.036,-508.669C443.291,-542.512 412.143,-572.064 386.596,-597.33C362.853,-620.812 350,-645.387 350,-672C350,-687.804 355.8,-701.373 367.213,-712.787C378.627,-724.2 392.196,-730 408,-730C417.857,-730 427.359,-727.989 436.512,-723.999C444.747,-720.41 451.506,-715.594 456.574,-709.259C462.267,-702.143 470.886,-698 480,-698C489.114,-698 497.733,-702.143 503.426,-709.259C508.494,-715.594 515.253,-720.41 523.488,-723.999C532.641,-727.989 542.143,-730 552,-730C567.804,-730 581.373,-724.2 592.787,-712.787C604.2,-701.373 610,-687.804 610,-672C610,-645.246 596.556,-620.22 571.901,-595.826C545.733,-569.937 515.11,-540.886 480.036,-508.669Z" style="fill:rgb(105,226,40);stroke:rgb(105,226,40);stroke-width:9.6px;"/>
            </g>
            <g transform="matrix(1,0,0,1,0,145.840806)">
                <path d="M657.887,406.941L657.887,340.275C657.887,338.549 659.286,337.15 661.012,337.15L711.012,337.15C712.738,337.15 714.137,338.549 714.137,340.275L714.137,406.941C714.137,408.667 712.738,410.066 711.012,410.066L661.012,410.066C659.286,410.066 657.887,408.667 657.887,406.941ZM672.47,399.65L699.553,399.65L699.553,397.566L672.47,397.566L672.47,399.65ZM672.47,387.15L699.553,387.15L699.553,385.066L672.47,385.066L672.47,387.15ZM686.016,370.622C689.669,367.266 692.859,364.24 695.585,361.543C698.153,359.002 699.553,356.395 699.553,353.608C699.553,351.962 698.949,350.548 697.76,349.359C696.572,348.171 695.158,347.566 693.512,347.566C692.485,347.566 691.495,347.776 690.542,348.191C689.684,348.565 688.98,349.067 688.452,349.727C687.859,350.468 686.961,350.9 686.012,350.9C685.062,350.9 684.165,350.468 683.572,349.727C683.044,349.067 682.34,348.565 681.482,348.191C680.528,347.776 679.539,347.566 678.512,347.566C676.866,347.566 675.452,348.171 674.263,349.359C673.074,350.548 672.47,351.962 672.47,353.608C672.47,356.38 673.809,358.94 676.282,361.386C678.943,364.018 682.188,367.096 686.016,370.622Z" style="fill:rgb(46,108,15);"/>
            </g>
        </g>
    </g>
</svg>
