<?xml version="1.0" encoding="UTF-8" standalone="no"?>
<!DOCTYPE svg PUBLIC "-//W3C//DTD SVG 1.1//EN" "http://www.w3.org/Graphics/SVG/1.1/DTD/svg11.dtd">
<svg width="100%" height="100%" viewBox="0 0 62 79" version="1.1" xmlns="http://www.w3.org/2000/svg" xmlns:xlink="http://www.w3.org/1999/xlink" xml:space="preserve" xmlns:serif="http://www.serif.com/" style="fill-rule:evenodd;clip-rule:evenodd;stroke-linejoin:round;stroke-miterlimit:2;">
    <g transform="matrix(1,0,0,1,-279.660177,-486.292911)">
        <g>
            <g transform="matrix(0.104167,0,0,0.104167,260.36851,575.334578)">
                <path d="M240,-110C226.255,-110 214.501,-114.925 204.713,-124.713C194.925,-134.501 190,-146.255 190,-160L190,-800C190,-813.745 194.925,-825.499 204.713,-835.287C214.501,-845.075 226.255,-850 240,-850L587.574,-850L770,-667.574L770,-160C770,-146.255 765.075,-134.501 755.287,-124.713C745.499,-114.925 733.745,-110 720,-110L240,-110ZM210,-160C210,-143.431 223.431,-130 240,-130L720,-130C736.569,-130 750,-143.431 750,-160L750,-640C750,-656.569 736.569,-670 720,-670L590,-670L590,-800C590,-816.569 576.569,-830 560,-830L240,-830C223.431,-830 210,-816.569 210,-800L210,-160ZM480,-230C444.255,-230 413.668,-242.758 388.213,-268.213C362.758,-293.668 350,-324.255 350,-360L350,-580C350,-599.617 356.668,-616.241 370.213,-629.787C383.759,-643.332 400.383,-650 420,-650C439.617,-650 456.241,-643.332 469.787,-629.787C483.332,-616.241 490,-599.617 490,-580L490,-390L470,-390L470,-580L469.236,-589.287L466.675,-598.765L462.093,-607.829L455.713,-615.713L447.829,-622.093L438.765,-626.675L429.287,-629.236L420,-630L410.715,-629.164L401.53,-626.548L393.05,-622.236L385.728,-616.615L378.866,-608.832L373.779,-599.596L370.874,-589.728L370,-580L370,-360C370,-329.745 380.742,-303.832 402.287,-282.287C423.832,-260.742 449.745,-250 480,-250C511.217,-250 537.322,-260.939 558.44,-282.516C579.47,-304.003 590,-329.827 590,-360L590,-490L610,-490L610,-360C610,-324.215 597.386,-293.583 572.174,-268.099C547.005,-242.66 516.264,-230 480,-230Z" style="fill:rgb(105,226,40);stroke:rgb(105,226,40);stroke-width:9.6px;"/>
            </g>
            <g transform="matrix(1,0,0,1,0,148.888545)">
                <path d="M282.244,409.779L282.244,343.113C282.244,341.387 283.643,339.988 285.369,339.988L318.702,339.988C320.428,339.988 321.827,341.387 321.827,343.113L321.827,356.654L335.369,356.654C337.094,356.654 338.494,358.053 338.494,359.779L338.494,409.779C338.494,411.505 337.094,412.904 335.369,412.904L285.369,412.904C283.643,412.904 282.244,411.505 282.244,409.779ZM310.369,402.488C314.146,402.488 317.348,401.169 319.97,398.519C322.596,395.864 323.91,392.674 323.91,388.946L323.91,375.404L321.827,375.404L321.827,388.946C321.827,392.089 320.73,394.779 318.539,397.017C316.34,399.265 313.62,400.404 310.369,400.404C307.217,400.404 304.518,399.285 302.273,397.041C300.029,394.797 298.91,392.098 298.91,388.946L298.91,366.029L299.001,365.016L299.304,363.988L299.834,363.026L300.549,362.215L301.311,361.63L302.195,361.181L303.151,360.908L304.119,360.821L305.086,360.901L306.073,361.167L307.017,361.645L307.839,362.309L308.503,363.131L308.98,364.075L309.247,365.062L309.327,366.029L309.327,385.821L311.41,385.821L311.41,366.029C311.41,363.986 310.716,362.254 309.305,360.843C307.894,359.432 306.162,358.738 304.119,358.738C302.075,358.738 300.343,359.432 298.932,360.843C297.521,362.254 296.827,363.986 296.827,366.029L296.827,388.946C296.827,392.669 298.156,395.856 300.807,398.507C303.459,401.159 306.645,402.488 310.369,402.488Z" style="fill:rgb(46,108,15);"/>
            </g>
        </g>
    </g>
</svg>
