<?xml version="1.0" encoding="UTF-8" standalone="no"?>
<!DOCTYPE svg PUBLIC "-//W3C//DTD SVG 1.1//EN" "http://www.w3.org/Graphics/SVG/1.1/DTD/svg11.dtd">
<svg width="100%" height="100%" viewBox="0 0 62 79" version="1.1" xmlns="http://www.w3.org/2000/svg" xmlns:xlink="http://www.w3.org/1999/xlink" xml:space="preserve" xmlns:serif="http://www.serif.com/" style="fill-rule:evenodd;clip-rule:evenodd;stroke-linejoin:round;stroke-miterlimit:2;">
    <g transform="matrix(1,0,0,1,-399.467076,-484.32402)">
        <g>
            <g transform="matrix(0.104167,0,0,0.104167,380.175409,573.365687)">
                <path d="M240,-110C226.255,-110 214.501,-114.925 204.713,-124.713C194.925,-134.501 190,-146.255 190,-160L190,-800C190,-813.745 194.925,-825.499 204.713,-835.287C214.501,-845.075 226.255,-850 240,-850L547.574,-850L770,-627.574L770,-160C770,-146.255 765.075,-134.501 755.287,-124.713C745.499,-114.925 733.745,-110 720,-110L240,-110ZM210,-160C210,-143.431 223.431,-130 240,-130L720,-130C736.569,-130 750,-143.431 750,-160L750,-600C750,-616.569 736.569,-630 720,-630L550,-630L550,-800C550,-816.569 536.569,-830 520,-830L240,-830C223.431,-830 210,-816.569 210,-800L210,-160ZM446.018,-290.444C441.59,-286.016 434.41,-286.016 429.982,-290.444C406.32,-314.107 338.426,-382 338.426,-382L353,-396.574L415.787,-333.787C427.503,-322.071 446.497,-322.071 458.213,-333.787L606,-481.574L621.574,-466C621.574,-466 481.369,-325.796 446.018,-290.444Z" style="fill:rgb(105,226,40);stroke:rgb(105,226,40);stroke-width:9.6px;"/>
            </g>
            <g transform="matrix(1,0,0,1,0,143.156636)">
                <path d="M402.05,413.542L402.05,346.876C402.05,345.15 403.45,343.751 405.175,343.751L434.342,343.751C436.068,343.751 437.467,345.15 437.467,346.876L437.467,364.584L455.175,364.584C456.901,364.584 458.3,365.983 458.3,367.709L458.3,413.542C458.3,415.268 456.901,416.667 455.175,416.667L405.175,416.667C403.45,416.667 402.05,415.268 402.05,413.542ZM424.919,399.908C425.153,400.142 425.47,400.273 425.8,400.273C426.131,400.273 426.448,400.142 426.682,399.908C430.439,396.151 444.923,381.667 444.923,381.667L443.3,380.045L427.906,395.44C426.686,396.66 424.707,396.66 423.487,395.44L416.946,388.899L415.428,390.417C415.428,390.417 422.413,397.402 424.919,399.908Z" style="fill:rgb(46,108,15);"/>
            </g>
        </g>
    </g>
</svg>
