<?xml version="1.0" encoding="UTF-8" standalone="no"?>
<!DOCTYPE svg PUBLIC "-//W3C//DTD SVG 1.1//EN" "http://www.w3.org/Graphics/SVG/1.1/DTD/svg11.dtd">
<svg width="100%" height="100%" viewBox="0 0 62 79" version="1.1" xmlns="http://www.w3.org/2000/svg" xmlns:xlink="http://www.w3.org/1999/xlink" xml:space="preserve" xmlns:serif="http://www.serif.com/" style="fill-rule:evenodd;clip-rule:evenodd;stroke-linejoin:round;stroke-miterlimit:2;">
    <g transform="matrix(1,0,0,1,-517.738919,-483.071167)">
        <g>
            <g transform="matrix(0.104167,0,0,0.104167,498.447261,572.112834)">
                <path d="M190,-110L190,-130L240,-130C256.569,-130 270,-143.431 270,-160L270,-280C270,-315.656 278.318,-349.123 294.977,-380.395C311.463,-411.341 334.445,-436.078 363.945,-454.588C372.691,-460.076 378,-469.675 378,-480C378,-490.325 372.691,-499.924 363.945,-505.412C334.445,-523.922 311.463,-548.659 294.977,-579.605C278.318,-610.877 270,-644.344 270,-680L270,-800C270,-816.569 256.569,-830 240,-830L190,-830L190,-850L770,-850L770,-830L720,-830C703.431,-830 690,-816.569 690,-800L690,-680C690,-644.344 681.682,-610.877 665.023,-579.605C648.537,-548.659 625.555,-523.922 596.055,-505.412C587.309,-499.924 582,-490.325 582,-480C582,-469.675 587.309,-460.076 596.055,-454.588C625.555,-436.078 648.537,-411.341 665.023,-380.395C681.682,-349.123 690,-315.656 690,-280L690,-160C690,-143.431 703.431,-130 720,-130L770,-130L770,-110L190,-110ZM290,-129.134L670,-129.134L670,-280C670,-332.255 651.425,-377.001 614.213,-414.213C577.001,-451.425 532.255,-470 480,-470C427.745,-470 382.999,-451.425 345.787,-414.213C308.575,-377.001 290,-332.255 290,-280L290,-129.134ZM614.213,-545.787C651.425,-582.999 670,-627.745 670,-680L670,-832.126L290,-828.71L290,-680C290,-627.745 308.575,-582.999 345.787,-545.787C382.999,-508.575 427.745,-490 480,-490C532.255,-490 577.001,-508.575 614.213,-545.787Z" style="fill:rgb(105,226,40);stroke:rgb(105,226,40);stroke-width:9.6px;"/>
            </g>
            <g transform="matrix(1,0,0,1,0,143.296429)">
                <path d="M528.656,415.365L528.656,399.65C528.656,394.207 530.59,389.545 534.467,385.669C538.343,381.793 543.004,379.858 548.447,379.858C553.89,379.858 558.552,381.793 562.428,385.669C566.304,389.545 568.239,394.207 568.239,399.65L568.239,415.365L528.656,415.365Z" style="fill:rgb(46,108,15);"/>
            </g>
        </g>
    </g>
</svg>
