<?xml version="1.0" encoding="UTF-8" standalone="no"?>
<!DOCTYPE svg PUBLIC "-//W3C//DTD SVG 1.1//EN" "http://www.w3.org/Graphics/SVG/1.1/DTD/svg11.dtd">
<svg width="100%" height="100%" viewBox="0 0 226 248" version="1.1" xmlns="http://www.w3.org/2000/svg" xmlns:xlink="http://www.w3.org/1999/xlink" xml:space="preserve" xmlns:serif="http://www.serif.com/" style="fill-rule:evenodd;clip-rule:evenodd;stroke-linejoin:round;stroke-miterlimit:2;">
    <g transform="matrix(1,0,0,1,-1060.238125,-1809.090807)">
        <g>
            <g transform="matrix(0,4.197935,4.197935,-0,-11225.989298,-7609.370783)">
                <path d="M2302.541,2926.731C2302.608,2927.192 2302.643,2927.661 2302.643,2928.135L2302.643,2951.243C2302.643,2951.891 2302.384,2952.513 2301.925,2952.971L2274.976,2979.822C2274.505,2980.291 2273.735,2980.529 2273.118,2980.534C2283.914,2961.501 2301.069,2937.092 2302.541,2926.731Z" style="fill:rgb(46,108,15);"/>
            </g>
            <g transform="matrix(0,-4.197935,4.197935,0,-11225.989298,11475.436117)">
                <path d="M2302.541,2926.731C2302.608,2927.192 2302.643,2927.661 2302.643,2928.135L2302.643,2951.243C2302.643,2951.891 2302.384,2952.513 2301.925,2952.971L2274.976,2979.822C2274.505,2980.291 2273.735,2980.529 2273.118,2980.534C2283.914,2961.501 2301.069,2937.092 2302.541,2926.731Z" style="fill:rgb(105,226,40);"/>
            </g>
            <g transform="matrix(0,1.715803,1.734125,-0,-4364.323757,-2818.331387)">
                <path d="M2769.179,3258.372L2769.179,3186.06L2841.166,3128.127C2841.166,3151.015 2796.793,3210.202 2769.179,3258.372Z" style="fill:rgb(105,226,40);"/>
            </g>
            <g transform="matrix(0,-1.715803,1.734125,0,-4364.323757,6684.396721)">
                <path d="M2769.179,3258.372L2769.179,3186.06L2841.166,3128.127C2841.166,3151.015 2796.793,3210.202 2769.179,3258.372Z" style="fill:rgb(46,108,15);"/>
            </g>
        </g>
    </g>
</svg>
